<svg height="280" viewBox="0 0 264 280" width="264" xmlns="http://www.w3.org/2000/svg" xmlns:xlink="http://www.w3.org/1999/xlink"><defs><path id="a" d="m124 144.610951v18.389049h4c39.764502 0 72 32.235498 72 72v9h-200v-9c0-39.764502 32.235498-72 72-72h4v-18.389049c-17.2373655-8.188579-29.6277754-24.92394-31.6948612-44.7297125-5.8248283-.8234519-10.3051388-5.8291289-10.3051388-11.8812385v-14c0-5.9459926 4.3245733-10.8819269 10-11.8340831v-6.1659169c0-30.927946 25.072054-56 56-56 30.927946 0 56 25.072054 56 56v6.1659169c5.675427.9521562 10 5.8880905 10 11.8340831v14c0 6.0521096-4.48031 11.0577866-10.305139 11.8812385-2.067086 19.8057725-14.457496 36.5411335-31.694861 44.7297125z"/><mask id="b" fill="#fff"><use fill="#fff" fill-rule="evenodd" xlink:href="#a"/></mask><mask id="c" fill="#fff"><use fill="#fff" fill-rule="evenodd" xlink:href="#h"/></mask><mask id="d" fill="#fff"><use fill="#fff" fill-rule="evenodd" xlink:href="#i"/></mask><mask id="e" fill="#fff"><path d="m0 0h264v280h-264z" fill="#fff" fill-rule="evenodd"/></mask><mask id="f" fill="#fff"><use fill="#fff" fill-rule="evenodd" xlink:href="#j"/></mask><filter id="g" height="108.3%" width="101.6%" x="-.8%" y="-2.1%"><feOffset dx="0" dy="2" in="SourceAlpha" result="shadowOffsetOuter1"/><feColorMatrix in="shadowOffsetOuter1" type="matrix" values="0 0 0 0 0   0 0 0 0 0   0 0 0 0 0  0 0 0 0.1 0"/></filter><path id="h" d="m108 13.0708856c-17.9186994 2.0050524-31.7201576 7.4809485-31.995797 21.574082-25.8577701 10.9231257-44.004203 36.5196581-44.004203 66.3545174v9.000515h200v-9.000515c0-29.8348593-18.146433-55.4313917-44.004203-66.3545018-.275639-14.0931491-14.077098-19.5690452-31.995797-21.5740976v18.9291144c0 13.254834-10.745166 24-24 24-13.254834 0-24-10.745166-24-24z"/><path id="i" d="m35.117844 15.1280772c1.0578681 9.4917253 9.1081433 16.8719228 18.882156 16.8719228 9.8042055 0 17.8740075-7.425864 18.8917593-16.9599454.0819092-.7673086-.7750164-2.0400546-1.8489923-2.0400546-14.8940134 0-26.3048457 0-33.9559426 0-1.0802076 0-2.0748186 1.1784435-1.9689804 2.1280772z"/><path id="j" d="m1 64c.34685629 1.488448 1.67275588 1.2226722 2 0-.46273995-1.554278 3.29594493-28.7519281 13-36 3.618222-2.5166128 23.0082164-4.7680901 42.3126144-4.754432 19.0959917.0135107 38.1082252 2.2649881 41.6873856 4.754432 9.704055 7.2480719 13.46274 34.445722 13 36 .327244 1.2226722 1.653144 1.488448 2 0 .719178-10.2980823 0-63.72563718-57-63s-57.71917845 52.7019177-57 63z"/><path id="k" d="m80.4646192 16.3941179c3.9155317-7.93542113 12.0879828-13.3941179 21.5353808-13.3941179 8.919691 0 16.702887 4.86591082 20.839921 12.0880638.210276-.0574134.431598-.0880638.660079-.0880638h8c1.380712 0 2.5 1.1192881 2.5 2.5s-1.119288 2.5-2.5 2.5h-6.536874c.674229 2.2145921 1.036874 4.5649459 1.036874 7 0 13.254834-10.745166 24-24 24s-24-10.745166-24-24c0-1.4218934.1236513-2.8149064.3607874-4.1688727-.0845416-4.3758238-3.4471917-7.8311273-7.4983703-7.8311273-3.7367474 0-6.8876985 2.9397535-7.4206536 6.8300629.3655664 1.6651293.5582365 3.3950329.5582365 5.1699371 0 13.254834-10.745166 24-24 24s-24-10.745166-24-24c0-2.4350541.3626451-4.7854079 1.0368738-7h-6.5368738c-1.38071187 0-2.5-1.1192881-2.5-2.5s1.11928813-2.5 2.5-2.5h8c.228481 0 .4498033.0306504.6600793.0880638 4.1370334-7.22215298 11.9202299-12.0880638 20.8399207-12.0880638 9.3521568 0 17.4549431 5.34919095 21.415666 13.15488 2.0772552-3.1156075 5.5337772-5.15488 9.4467511-5.15488 4.0122652 0 7.5446197 2.1440781 9.6022021 5.3941179zm-40.4646192 30.6058821c11.045695 0 20-8.954305 20-20s-8.954305-20-20-20-20 8.954305-20 20 8.954305 20 20 20zm62 0c11.045695 0 20-8.954305 20-20s-8.954305-20-20-20-20 8.954305-20 20 8.954305 20 20 20z"/></defs><g fill="none" fill-rule="evenodd"><g transform="translate(32 36)"><use fill="#d0c6ac" xlink:href="#a"/><g fill="#edb98a" mask="url(#b)"><path d="m0 0h264v280h-264z"/></g><path d="m156 79v23c0 30.927946-25.072054 56-56 56s-56-25.072054-56-56v-23 15c0 30.927946 25.072054 56 56 56s56-25.072054 56-56z" fill="#000" fill-opacity=".1" mask="url(#b)"/></g><g fill-rule="evenodd" transform="translate(0 170)"><use fill="#b7c1db" xlink:href="#h"/><g fill="#262e33" mask="url(#c)"><path d="m0 0h264v110h-264z"/></g><path d="m102 61.7390531v48.2609469h-7v-51.8497375c2.2037542 1.3097951 4.5467694 2.5105253 7 3.5887906zm67-3.5887906v40.3497375c0 1.932997-1.567003 3.5-3.5 3.5s-3.5-1.567003-3.5-3.5v-36.7609469c2.453231-1.0782653 4.796246-2.2789955 7-3.5887906z" fill="#f4f4f4" mask="url(#c)"/><path d="m90.9601329 12.7243537c-15.0508234 2.8468245-25.4601329 8.518531-25.4601329 19.5833386 0 19.7123172 33.0376807 35.6923077 66.5 35.6923077 33.462319 0 66.5-15.9799905 66.5-35.6923077 0-11.0648076-10.40931-16.7365141-25.460133-19.5833386 9.085054 3.3501061 14.960133 8.9817009 14.960133 18.3525694 0 20.3920523-27.821205 36.9230769-56 36.9230769s-56-16.5310246-56-36.9230769c0-9.3708685 5.8750795-15.0024633 14.9601329-18.3525694z" fill="#000" fill-opacity=".16" mask="url(#c)"/></g><g fill="#000"><g fill-rule="evenodd" transform="translate(78 134)"><use fill="#000" fill-opacity=".7" xlink:href="#i"/><rect fill="#fff" height="16" mask="url(#d)" rx="5" width="31" x="39" y="2"/><g fill="#ff4f6d" mask="url(#d)"><g transform="translate(38 24)"><circle cx="11" cy="11" r="11"/><circle cx="21" cy="11" r="11"/></g></g></g><path d="m16 8c0 4.418278 5.372583 8 12 8 6.627417 0 12-3.581722 12-8" fill-opacity=".16" transform="translate(104 122)"/><g fill-opacity=".6"><g transform="translate(76 90)"><path d="m16.1601674 22.4473116c1.8465086-3.7988036 6.0042551-6.4473116 10.8374129-6.4473116 4.8160963 0 8.9615414 2.629842 10.8177715 6.4071242.5514087 1.1220735-.2332481 2.0403575-1.0247448 1.3598986-2.4511007-2.1072395-5.9318907-3.4232344-9.7930267-3.4232344-3.7403742 0-7.1238219 1.2349635-9.5600411 3.2278528-.8907464.7286532-1.817438-.0132568-1.2773718-1.1243296z"/><path d="m74.1601674 22.4473116c1.8465086-3.7988036 6.0042551-6.4473116 10.8374129-6.4473116 4.8160963 0 8.9615414 2.629842 10.8177715 6.4071242.5514087 1.1220735-.2332481 2.0403575-1.0247448 1.3598986-2.4511007-2.1072395-5.9318907-3.4232344-9.7930267-3.4232344-3.7403742 0-7.1238219 1.2349635-9.5600411 3.2278528-.8907464.7286532-1.817438-.0132568-1.2773718-1.1243296z"/></g><g fill-rule="nonzero" transform="translate(88 88)"><path d="m3.63024536 11.1585767c3.91490965-5.50870997 14.64767434-8.59773949 23.89278144-6.32739624 1.072698.26342504 2.1558397-.39262033 2.4192648-1.46531834.263425-1.07269802-.3926204-2.15583976-1.4653184-2.4192648-10.7366099-2.63661521-23.16487358.940401-28.10721856 7.89482594-.63986427.90035965-.42869103 2.14895784.47166862 2.78882214.90035965.6398642 2.14895784.428691 2.7888221-.4716687z"/><path d="m61.6302454 11.1585767c3.9149096-5.50870997 14.6476743-8.59773949 23.8927814-6.32739624 1.072698.26342504 2.1558397-.39262033 2.4192648-1.46531834.263425-1.07269802-.3926204-2.15583976-1.4653184-2.4192648-10.7366099-2.63661521-23.1648736.940401-28.1072186 7.89482594-.6398642.90035965-.428691 2.14895784.4716687 2.78882214.9003596.6398642 2.1489578.428691 2.7888221-.4716687z" transform="matrix(-1 0 0 1 146.000308 0)"/></g></g></g><g fill-rule="evenodd" mask="url(#e)"><g fill-rule="evenodd" transform="translate(74 34)"><use fill="#28354b" xlink:href="#j"/><g fill="#2c1b18" mask="url(#f)"><path d="m0 0h264v280h-264z"/></g></g><g fill="none" transform="translate(61 85)"><use fill="#000" filter="url(#g)" xlink:href="#k"/><use fill="#252c2f" fill-rule="evenodd" xlink:href="#k"/></g></g></g></svg>